<?xml version="1.0" encoding="UTF-8"?>
<svg version="1.1" xmlns="http://www.w3.org/2000/svg" width="154" height="129">
<path d="M0 0 C0.97179199 0.00088623 1.94358398 0.00177246 2.94482422 0.00268555 C10.61091595 0.12936061 18.01621047 0.83285125 24.078125 5.98046875 C26.88889883 7.83870256 28.9647412 7.77819734 32.3125 7.875 C38.3283793 8.19448738 43.53268273 9.3453929 49.1875 11.375 C49.56737311 18.78252563 47.56216061 25.43061435 45.1875 32.375 C47.06695312 32.46587891 47.06695312 32.46587891 48.984375 32.55859375 C50.63542724 32.64302256 52.28646835 32.72766939 53.9375 32.8125 C54.7625 32.85181641 55.5875 32.89113281 56.4375 32.93164062 C57.63632813 32.99448242 57.63632813 32.99448242 58.859375 33.05859375 C59.5925293 33.09525146 60.32568359 33.13190918 61.08105469 33.16967773 C63.20043095 33.37626042 65.13013512 33.84034515 67.1875 34.375 C68.52087147 34.39322969 69.85534736 34.37234279 71.1875 34.3125 C74.37654819 34.25895255 76.46417291 34.55944861 79.1875 36.375 C79.166875 37.509375 79.14625 38.64375 79.125 39.8125 C78.77172523 43.19075674 78.77172523 43.19075674 80.1875 44.375 C80.32865161 47.04558851 80.22997107 49.69932238 80.1875 52.375 C75.90695911 54.02136188 71.95301329 54.73756266 67.42578125 55.1484375 C65.4168328 55.35178656 63.42361202 55.69837946 61.4375 56.0625 C57.91886612 56.40083018 56.3516161 55.77948011 53.1875 54.375 C53.001875 55.30505859 53.001875 55.30505859 52.8125 56.25390625 C50.51251905 66.12944945 45.79197094 74.96829358 40.1875 83.375 C39.5275 83.375 38.8675 83.375 38.1875 83.375 C37.91164063 83.95636719 37.63578125 84.53773437 37.3515625 85.13671875 C31.90038839 95.61833876 22.40450778 102.40183306 13.1875 109.375 C12.1975 110.179375 11.2075 110.98375 10.1875 111.8125 C5.83815198 114.07778543 2.96177545 114.83108401 -1.8125 113.375 C-11.70454203 107.3176508 -19.93261353 98.68602587 -28.0234375 90.46484375 C-28.56274902 89.91691162 -29.10206055 89.36897949 -29.65771484 88.80444336 C-30.8125 87.375 -30.8125 87.375 -30.8125 85.375 C-31.59625 86.15875 -32.38 86.9425 -33.1875 87.75 C-36.39684251 90.95934251 -38.4204066 92.62480203 -42.61328125 94.3125 C-46.37216116 96.12851303 -49.736943 98.57773061 -53.1640625 100.94921875 C-56.01627754 102.48470325 -57.62853027 102.6796036 -60.8125 102.375 C-61.01875 101.59125 -61.225 100.8075 -61.4375 100 C-62.61926612 97.06583714 -62.61926612 97.06583714 -65.9375 96.0625 C-66.88625 95.835625 -67.835 95.60875 -68.8125 95.375 C-69.43281255 92.45953103 -69.65506055 91.17842875 -68.8125 88.375 C-65.13882481 84.14152669 -60.9113625 80.5739271 -56.04296875 77.79296875 C-52.98176899 75.84688204 -52.91627614 73.75531443 -51.8125 70.375 C-50.19039201 68.98780094 -48.52656975 67.64681778 -46.8125 66.375 C-47.15023437 65.40820312 -47.48796875 64.44140625 -47.8359375 63.4453125 C-50.11531802 56.82608007 -52.25829787 50.34383036 -53.453125 43.42578125 C-53.78205247 41.34518108 -53.78205247 41.34518108 -54.4140625 39.2421875 C-54.8125 37.375 -54.8125 37.375 -53.9375 35.1875 C-50.65117745 32.38446018 -47.01373834 32.55115255 -42.8125 32.375 C-42.8125 30.725 -42.8125 29.075 -42.8125 27.375 C-43.4725 27.375 -44.1325 27.375 -44.8125 27.375 C-44.87308594 26.78332031 -44.93367188 26.19164063 -44.99609375 25.58203125 C-45.53329394 20.51301448 -45.53329394 20.51301448 -46.4375 15.5 C-46.8125 13.375 -46.8125 13.375 -45.8125 10.375 C-44.09765625 9.6796875 -44.09765625 9.6796875 -41.875 9.25 C-41.06289063 9.08886719 -40.25078125 8.92773438 -39.4140625 8.76171875 C-36.85075506 8.38068656 -34.33590695 8.21060922 -31.75 8.0625 C-27.25735404 7.68753419 -24.53772084 6.36566586 -20.9921875 3.62890625 C-14.5651377 -0.06837509 -7.20939682 -0.01176185 0 0 Z " fill="#513F5C" transform="translate(68.8125,8.625)"/>
<path d="M0 0 C3.40667322 0.44824648 5.07914607 1.05276405 8 3 C10.71095824 3.27593174 13.34575251 3.4640149 16.0625 3.5625 C23.76150527 3.88075264 23.76150527 3.88075264 26 5 C25.4140625 11.15234375 25.4140625 11.15234375 25 13 C24.34 13.33 23.68 13.66 23 14 C22.34786708 16.02463255 22.34786708 16.02463255 22 18 C21.01 18 20.02 18 19 18 C17.92474806 20.65228812 16.90543849 23.28368454 16 26 C17.485 26.495 17.485 26.495 19 27 C17.35 27 15.7 27 14 27 C14 27.66 14 28.32 14 29 C28.355 28.505 28.355 28.505 43 28 C43.495 29.485 43.495 29.485 44 31 C47.96 31 51.92 31 56 31 C55.67 32.65 55.34 34.3 55 36 C56.32 36.66 57.64 37.32 59 38 C59 38.66 59 39.32 59 40 C58.21753906 40.06058594 57.43507812 40.12117188 56.62890625 40.18359375 C55.61699219 40.26738281 54.60507813 40.35117187 53.5625 40.4375 C52.55316406 40.51871094 51.54382813 40.59992187 50.50390625 40.68359375 C48.06359221 40.73211468 48.06359221 40.73211468 47 42 C44.32914791 42.14838067 42.05498678 42.01207027 39.4375 41.4375 C36.79141494 40.96256166 35.49321073 41.0483289 33 42 C31.59453184 44.729678 30.43313597 47.34371701 29.3125 50.1875 C21.29755953 69.2265188 6.44775901 91.11278317 -13 100 C-24.09970322 99.11731982 -35.19078272 84.09116111 -42.36523438 76.68237305 C-43.45342397 75.56249335 -44.56994459 74.46945437 -45.71289062 73.40551758 C-47 72 -47 72 -47 70 C-51.455 70.99 -51.455 70.99 -56 72 C-55.896875 72.763125 -55.79375 73.52625 -55.6875 74.3125 C-55.790625 75.199375 -55.89375 76.08625 -56 77 C-60.30183245 80.38932254 -65.83558012 82.27852671 -71 84 C-71.33 84.99 -71.66 85.98 -72 87 C-72.66 87 -73.32 87 -74 87 C-73.34 84.69 -72.68 82.38 -72 80 C-74.97 80.99 -77.94 81.98 -81 83 C-78.98083229 78.96166458 -77.58033211 77.54498074 -74.125 74.8125 C-73.26132813 74.11769531 -72.39765625 73.42289062 -71.5078125 72.70703125 C-69.21677807 71.14755766 -67.70205392 70.4210177 -65 70 C-65 67.69 -65 65.38 -65 63 C-64.37351562 62.95101562 -63.74703125 62.90203125 -63.1015625 62.8515625 C-62.28429687 62.77679688 -61.46703125 62.70203125 -60.625 62.625 C-59.81289063 62.55539063 -59.00078125 62.48578125 -58.1640625 62.4140625 C-55.79665809 62.17107412 -55.79665809 62.17107412 -54 60 C-51.67724823 59.59952556 -49.34260643 59.2602896 -47 59 C-47 58.34 -47 57.68 -47 57 C-45.54293274 56.49632243 -44.08429904 55.99717444 -42.625 55.5 C-41.81289063 55.2215625 -41.00078125 54.943125 -40.1640625 54.65625 C-38 54 -38 54 -36 54 C-36 49.38 -36 44.76 -36 40 C-34.79601563 39.96261719 -33.59203125 39.92523438 -32.3515625 39.88671875 C-30.77600989 39.82107072 -29.20049046 39.75462299 -27.625 39.6875 C-26.8309375 39.66494141 -26.036875 39.64238281 -25.21875 39.61914062 C-23.13784419 39.52214925 -21.06558668 39.27005175 -19 39 C-18.34 38.01 -17.68 37.02 -17 36 C-14 37 -14 37 -13 39 C-10.42126632 39.39973377 -7.97036727 39.65289185 -5.375 39.8125 C-4.67503906 39.87630859 -3.97507812 39.94011719 -3.25390625 40.00585938 C1.93615383 40.34769079 5.24282766 39.28061237 10 37 C12.32637107 36.30943028 14.65904941 35.63940539 17 35 C16.1121582 34.9906543 15.22431641 34.98130859 14.30957031 34.97167969 C11.00654081 34.92759319 7.70479993 34.86595254 4.40234375 34.79248047 C2.97473063 34.76430389 1.54696247 34.74307273 0.11914062 34.72900391 C-1.93700332 34.70752608 -3.99129002 34.66086026 -6.046875 34.609375 C-7.28276367 34.58842773 -8.51865234 34.56748047 -9.79199219 34.54589844 C-13.50199104 33.91457748 -14.68990911 32.89517942 -17 30 C-17.33 30.66 -17.66 31.32 -18 32 C-18.495 30.515 -18.495 30.515 -19 29 C-18.67 28.34 -18.34 27.68 -18 27 C-21.96 27 -25.92 27 -30 27 C-24.02482488 22.51861866 -19.25723554 22.40837754 -12 23 C-9.14128732 23.76827903 -6.7091632 24.77320912 -4 26 C-4 26.66 -4 27.32 -4 28 C0.95 28 5.9 28 11 28 C11 26.35 11 24.7 11 23 C11.66 23 12.32 23 13 23 C13.061875 22.278125 13.12375 21.55625 13.1875 20.8125 C14.24456647 17.15342375 16.20550071 15.50788398 19 13 C13.21101581 12.79325056 8.57067277 13.40837921 3 15 C-0.71185089 10.31984018 -1.22086384 6.96332379 -1 1 C-0.67 0.67 -0.34 0.34 0 0 Z " fill="#6C5865" transform="translate(86,18)"/>
<path d="M0 0 C0.97179199 0.00088623 1.94358398 0.00177246 2.94482422 0.00268555 C10.61091595 0.12936061 18.01621047 0.83285125 24.078125 5.98046875 C26.88889883 7.83870256 28.9647412 7.77819734 32.3125 7.875 C38.3283793 8.19448738 43.53268273 9.3453929 49.1875 11.375 C49.56737311 18.78252563 47.56216061 25.43061435 45.1875 32.375 C47.06695312 32.46587891 47.06695312 32.46587891 48.984375 32.55859375 C50.63542724 32.64302256 52.28646835 32.72766939 53.9375 32.8125 C54.7625 32.85181641 55.5875 32.89113281 56.4375 32.93164062 C57.63632813 32.99448242 57.63632813 32.99448242 58.859375 33.05859375 C59.5925293 33.09525146 60.32568359 33.13190918 61.08105469 33.16967773 C63.20043095 33.37626042 65.13013512 33.84034515 67.1875 34.375 C68.52087147 34.39322969 69.85534736 34.37234279 71.1875 34.3125 C74.37654819 34.25895255 76.46417291 34.55944861 79.1875 36.375 C79.166875 37.509375 79.14625 38.64375 79.125 39.8125 C78.77172523 43.19075674 78.77172523 43.19075674 80.1875 44.375 C80.32865161 47.04558851 80.22997107 49.69932238 80.1875 52.375 C75.90695911 54.02136188 71.95301329 54.73756266 67.42578125 55.1484375 C65.4168328 55.35178656 63.42361202 55.69837946 61.4375 56.0625 C57.91886612 56.40083018 56.3516161 55.77948011 53.1875 54.375 C53.001875 55.30505859 53.001875 55.30505859 52.8125 56.25390625 C50.51251905 66.12944945 45.79197094 74.96829358 40.1875 83.375 C39.5275 83.375 38.8675 83.375 38.1875 83.375 C37.91164063 83.95636719 37.63578125 84.53773437 37.3515625 85.13671875 C31.90038839 95.61833876 22.40450778 102.40183306 13.1875 109.375 C12.1975 110.179375 11.2075 110.98375 10.1875 111.8125 C5.83815198 114.07778543 2.96177545 114.83108401 -1.8125 113.375 C-11.70454203 107.3176508 -19.93261353 98.68602587 -28.0234375 90.46484375 C-28.56274902 89.91691162 -29.10206055 89.36897949 -29.65771484 88.80444336 C-30.8125 87.375 -30.8125 87.375 -30.8125 85.375 C-31.59625 86.15875 -32.38 86.9425 -33.1875 87.75 C-36.39684251 90.95934251 -38.4204066 92.62480203 -42.61328125 94.3125 C-46.37216116 96.12851303 -49.736943 98.57773061 -53.1640625 100.94921875 C-56.01627754 102.48470325 -57.62853027 102.6796036 -60.8125 102.375 C-61.01875 101.59125 -61.225 100.8075 -61.4375 100 C-62.61926612 97.06583714 -62.61926612 97.06583714 -65.9375 96.0625 C-66.88625 95.835625 -67.835 95.60875 -68.8125 95.375 C-69.43281255 92.45953103 -69.65506055 91.17842875 -68.8125 88.375 C-65.13882481 84.14152669 -60.9113625 80.5739271 -56.04296875 77.79296875 C-52.98176899 75.84688204 -52.91627614 73.75531443 -51.8125 70.375 C-50.19039201 68.98780094 -48.52656975 67.64681778 -46.8125 66.375 C-47.15023437 65.40820312 -47.48796875 64.44140625 -47.8359375 63.4453125 C-50.11531802 56.82608007 -52.25829787 50.34383036 -53.453125 43.42578125 C-53.78205247 41.34518108 -53.78205247 41.34518108 -54.4140625 39.2421875 C-54.8125 37.375 -54.8125 37.375 -53.9375 35.1875 C-50.65117745 32.38446018 -47.01373834 32.55115255 -42.8125 32.375 C-42.8125 30.725 -42.8125 29.075 -42.8125 27.375 C-43.4725 27.375 -44.1325 27.375 -44.8125 27.375 C-44.87308594 26.78332031 -44.93367188 26.19164063 -44.99609375 25.58203125 C-45.53329394 20.51301448 -45.53329394 20.51301448 -46.4375 15.5 C-46.8125 13.375 -46.8125 13.375 -45.8125 10.375 C-44.09765625 9.6796875 -44.09765625 9.6796875 -41.875 9.25 C-41.06289063 9.08886719 -40.25078125 8.92773438 -39.4140625 8.76171875 C-36.85075506 8.38068656 -34.33590695 8.21060922 -31.75 8.0625 C-27.25735404 7.68753419 -24.53772084 6.36566586 -20.9921875 3.62890625 C-14.5651377 -0.06837509 -7.20939682 -0.01176185 0 0 Z M-23.26171875 11.00390625 C-25.7036222 13.16286875 -28.12661248 12.86366698 -31.3125 13 C-36.14709691 13.22039768 -36.14709691 13.22039768 -40.8125 14.375 C-40.4825 17.345 -40.1525 20.315 -39.8125 23.375 C-38.4925 23.375 -37.1725 23.375 -35.8125 23.375 C-35.709375 23.931875 -35.60625 24.48875 -35.5 25.0625 C-34.88090228 27.49597671 -34.88090228 27.49597671 -33.3125 29.875 C-31.95918715 32.13052142 -31.28606939 33.8177253 -30.8125 36.375 C-30.1525 36.375 -29.4925 36.375 -28.8125 36.375 C-28.8125 37.035 -28.8125 37.695 -28.8125 38.375 C-35.4125 38.375 -42.0125 38.375 -48.8125 38.375 C-48.668125 40.004375 -48.52375 41.63375 -48.375 43.3125 C-48.29378906 44.22902344 -48.21257813 45.14554688 -48.12890625 46.08984375 C-48.05205024 48.33659732 -48.05205024 48.33659732 -46.8125 49.375 C-46.750625 50.509375 -46.68875 51.64375 -46.625 52.8125 C-46.1048557 57.69656685 -43.83379168 61.12364712 -41.1875 65.17578125 C-39.8125 67.375 -39.8125 67.375 -38.8125 70.375 C-43.2675 71.365 -43.2675 71.365 -47.8125 72.375 C-47.8125 74.685 -47.8125 76.995 -47.8125 79.375 C-48.90498047 79.76558594 -48.90498047 79.76558594 -50.01953125 80.1640625 C-52.8870082 81.40730426 -55.03790684 82.83550311 -57.5 84.75 C-58.65048828 85.62785156 -58.65048828 85.62785156 -59.82421875 86.5234375 C-62.15546049 88.47794721 -62.15546049 88.47794721 -63.8125 92.375 C-60.8425 91.385 -57.8725 90.395 -54.8125 89.375 C-55.4725 91.685 -56.1325 93.995 -56.8125 96.375 C-55.3275 95.88 -55.3275 95.88 -53.8125 95.375 C-53.8125 94.715 -53.8125 94.055 -53.8125 93.375 C-53.09707031 93.09914063 -52.38164063 92.82328125 -51.64453125 92.5390625 C-48.85511145 91.39251478 -46.18959642 90.11272885 -43.5 88.75 C-42.61699219 88.30398437 -41.73398437 87.85796875 -40.82421875 87.3984375 C-39.82841797 86.89183594 -39.82841797 86.89183594 -38.8125 86.375 C-38.8125 84.725 -38.8125 83.075 -38.8125 81.375 C-34.3575 80.385 -34.3575 80.385 -29.8125 79.375 C-29.8125 80.035 -29.8125 80.695 -29.8125 81.375 C-28.69838167 82.5516124 -27.57298655 83.71890262 -26.40380859 84.84082031 C-24.61923284 86.56132875 -22.89867444 88.33494575 -21.17578125 90.1171875 C-11.11898791 101.20286418 -11.11898791 101.20286418 1.1875 109.375 C12.48996724 108.45918744 25.04715417 93.0554736 32.0234375 85.10546875 C38.76485665 76.59959873 44.626085 66.58317078 47.875 56.171875 C48.5 54.25 48.5 54.25 50.1875 51.375 C53.02803055 50.37245981 55.10494947 50.375 58.1875 50.375 C58.5175 50.705 58.8475 51.035 59.1875 51.375 C61.6875 51.54166667 61.6875 51.54166667 64.1875 51.375 C64.5175 51.045 64.8475 50.715 65.1875 50.375 C67.03641946 50.14136119 68.89238031 49.96196365 70.75 49.8125 C71.76191406 49.72871094 72.77382812 49.64492188 73.81640625 49.55859375 C74.59886719 49.49800781 75.38132813 49.43742187 76.1875 49.375 C76.1875 48.715 76.1875 48.055 76.1875 47.375 C74.8675 46.715 73.5475 46.055 72.1875 45.375 C72.5175 43.725 72.8475 42.075 73.1875 40.375 C69.2275 40.375 65.2675 40.375 61.1875 40.375 C60.8575 39.385 60.5275 38.395 60.1875 37.375 C45.8325 37.87 45.8325 37.87 31.1875 38.375 C31.1875 37.715 31.1875 37.055 31.1875 36.375 C32.8375 36.375 34.4875 36.375 36.1875 36.375 C34.7025 35.88 34.7025 35.88 33.1875 35.375 C33.6825 34.42625 34.1775 33.4775 34.6875 32.5 C36.33174369 29.65221834 36.33174369 29.65221834 36.1875 27.375 C37.1775 27.375 38.1675 27.375 39.1875 27.375 C39.373125 26.4159375 39.373125 26.4159375 39.5625 25.4375 C39.76875 24.756875 39.975 24.07625 40.1875 23.375 C41.1775 22.88 41.1775 22.88 42.1875 22.375 C42.166875 21.611875 42.14625 20.84875 42.125 20.0625 C42.1875 17.375 42.1875 17.375 43.1875 14.375 C40.70040668 13.13145334 38.56643533 13.28135988 35.83007812 13.23657227 C28.38402581 13.06603255 23.58574433 12.11995526 17.3203125 7.80859375 C7.53674427 1.23245906 -15.13863327 1.87364575 -23.26171875 11.00390625 Z " fill="#F3F2F4" transform="translate(68.8125,8.625)"/>
<path d="M0 0 C-5.01141158 21.1433841 -20.20853351 39.03090568 -37.375 51.6875 C-37.97022461 52.13440186 -38.56544922 52.58130371 -39.17871094 53.04174805 C-43.36530562 56.01171023 -43.36530562 56.01171023 -46.1171875 55.9609375 C-56.88436921 50.46565389 -65.06840998 41.2501935 -73.36523438 32.68237305 C-74.45342397 31.56249335 -75.56994459 30.46945437 -76.71289062 29.40551758 C-78 28 -78 28 -78 26 C-80.97 26.66 -83.94 27.32 -87 28 C-86.896875 28.763125 -86.79375 29.52625 -86.6875 30.3125 C-86.790625 31.199375 -86.89375 32.08625 -87 33 C-91.30183245 36.38932254 -96.83558012 38.27852671 -102 40 C-102.33 40.99 -102.66 41.98 -103 43 C-103.66 43 -104.32 43 -105 43 C-104.34 40.69 -103.68 38.38 -103 36 C-105.97 36.99 -108.94 37.98 -112 39 C-109.98083229 34.96166458 -108.58033211 33.54498074 -105.125 30.8125 C-103.82949219 29.77029297 -103.82949219 29.77029297 -102.5078125 28.70703125 C-100.21677807 27.14755766 -98.70205392 26.4210177 -96 26 C-96 23.69 -96 21.38 -96 19 C-95.37351562 18.95101562 -94.74703125 18.90203125 -94.1015625 18.8515625 C-93.28429687 18.77679688 -92.46703125 18.70203125 -91.625 18.625 C-90.40683594 18.52058594 -90.40683594 18.52058594 -89.1640625 18.4140625 C-86.79665809 18.17107412 -86.79665809 18.17107412 -85 16 C-82.67724823 15.59952556 -80.34260643 15.2602896 -78 15 C-78 14.34 -78 13.68 -78 13 C-70.71359134 10.68006154 -63.49612516 8.52463563 -56 7 C-55.505 9.475 -55.505 9.475 -55 12 C-57.31 11.34 -59.62 10.68 -62 10 C-62 11.65 -62 13.3 -62 15 C-62.66 15 -63.32 15 -64 15 C-64 14.01 -64 13.02 -64 12 C-64.99 12 -65.98 12 -67 12 C-67.33 12.99 -67.66 13.98 -68 15 C-68.99 14.34 -69.98 13.68 -71 13 C-70.62875 14.2375 -70.2575 15.475 -69.875 16.75 C-69.0584754 19.47174865 -68.77456347 20.51157282 -69.98486328 23.13378906 C-70.3198584 23.74963867 -70.65485352 24.36548828 -71 25 C-60.18625966 37.88457888 -60.18625966 37.88457888 -47 48 C-43.16794819 47.87022932 -40.83421996 45.45171286 -38 43.0625 C-33.3600823 39.16525206 -33.3600823 39.16525206 -30.8125 37.99609375 C-28.4597419 36.70309091 -28.1122817 35.40921095 -27 33 C-25.76616647 31.55099461 -24.49145966 30.13623627 -23.1875 28.75 C-19.93261665 25.19439374 -17.39277504 21.66965196 -15.10546875 17.43359375 C-14.55826172 16.72396484 -14.55826172 16.72396484 -14 16 C-13.01 16 -12.02 16 -11 16 C-10.89042969 15.40832031 -10.78085938 14.81664063 -10.66796875 14.20703125 C-9.75300667 9.64709829 -8.94021251 5.73180819 -6 2 C-3.80010103 0.60006429 -2.60233337 0 0 0 Z " fill="#45355D" transform="translate(117,62)"/>
<path d="M0 0 C3.40667322 0.44824648 5.07914607 1.05276405 8 3 C10.71095824 3.27593174 13.34575251 3.4640149 16.0625 3.5625 C23.76150527 3.88075264 23.76150527 3.88075264 26 5 C25.4140625 11.15234375 25.4140625 11.15234375 25 13 C24.34 13.33 23.68 13.66 23 14 C22.34786708 16.02463255 22.34786708 16.02463255 22 18 C21.01 18 20.02 18 19 18 C17.92474806 20.65228812 16.90543849 23.28368454 16 26 C16.99 26.33 17.98 26.66 19 27 C17.35 27 15.7 27 14 27 C14 27.66 14 28.32 14 29 C23.57 28.67 33.14 28.34 43 28 C43.495 29.485 43.495 29.485 44 31 C47.96 31 51.92 31 56 31 C55.67 32.65 55.34 34.3 55 36 C56.32 36.66 57.64 37.32 59 38 C59 38.66 59 39.32 59 40 C57.82630859 40.09087891 57.82630859 40.09087891 56.62890625 40.18359375 C55.61699219 40.26738281 54.60507813 40.35117187 53.5625 40.4375 C52.55316406 40.51871094 51.54382813 40.59992187 50.50390625 40.68359375 C48.06359221 40.73211468 48.06359221 40.73211468 47 42 C44.43302453 42.14260975 42.38038406 42.12703392 39.9296875 41.30859375 C35.39767969 40.83122226 31.62819082 42.46499378 27.375 43.9375 C25.67573944 44.51285023 23.97526305 45.08462538 22.2734375 45.65234375 C21.52497559 45.91007568 20.77651367 46.16780762 20.00537109 46.43334961 C18 47 18 47 15 47 C14.34 44.03 13.68 41.06 13 38 C14.32 37.01 15.64 36.02 17 35 C16.1121582 34.9906543 15.22431641 34.98130859 14.30957031 34.97167969 C11.00654081 34.92759319 7.70479993 34.86595254 4.40234375 34.79248047 C2.97473063 34.76430389 1.54696247 34.74307273 0.11914062 34.72900391 C-1.93700332 34.70752608 -3.99129002 34.66086026 -6.046875 34.609375 C-7.28276367 34.58842773 -8.51865234 34.56748047 -9.79199219 34.54589844 C-13.50199104 33.91457748 -14.68990911 32.89517942 -17 30 C-17.33 30.66 -17.66 31.32 -18 32 C-18.33 31.01 -18.66 30.02 -19 29 C-18.67 28.34 -18.34 27.68 -18 27 C-21.96 27 -25.92 27 -30 27 C-24.02482488 22.51861866 -19.25723554 22.40837754 -12 23 C-9.14128732 23.76827903 -6.7091632 24.77320912 -4 26 C-4 26.66 -4 27.32 -4 28 C0.95 28 5.9 28 11 28 C11 26.35 11 24.7 11 23 C11.66 23 12.32 23 13 23 C13.061875 22.278125 13.12375 21.55625 13.1875 20.8125 C14.24456647 17.15342375 16.20550071 15.50788398 19 13 C13.21101581 12.79325056 8.57067277 13.40837921 3 15 C-0.71185089 10.31984018 -1.22086384 6.96332379 -1 1 C-0.67 0.67 -0.34 0.34 0 0 Z " fill="#46334C" transform="translate(86,18)"/>
<path d="M0 0 C0 12.34478491 -9.81978861 22.65824045 -18 31 C-19.19882813 32.22589844 -19.19882813 32.22589844 -20.421875 33.4765625 C-23.05579778 36.05461419 -25.75210282 38.49065747 -28.5625 40.875 C-29.95662109 42.07769531 -29.95662109 42.07769531 -31.37890625 43.3046875 C-34 45 -34 45 -35.9609375 45.05859375 C-38.9871431 43.48751766 -41.49737819 41.40395709 -44.0625 39.1875 C-44.62670654 38.70482666 -45.19091309 38.22215332 -45.7722168 37.72485352 C-49.84647668 34.16864825 -53.64677605 30.41189091 -57.3125 26.4375 C-57.78631104 25.92533936 -58.26012207 25.41317871 -58.74829102 24.88549805 C-62 21.26077202 -62 21.26077202 -62 19 C-60.35 18.67 -58.7 18.34 -57 18 C-56.67 19.32 -56.34 20.64 -56 22 C-54.91460937 22.12117188 -53.82921875 22.24234375 -52.7109375 22.3671875 C-51.26558596 22.53612469 -49.82027558 22.70541425 -48.375 22.875 C-47.66214844 22.95363281 -46.94929688 23.03226563 -46.21484375 23.11328125 C-42.79389066 23.52128483 -39.93383849 24.02370658 -36.6640625 25.1953125 C-35.78492187 25.46085937 -34.90578125 25.72640625 -34 26 C-33.01 25.34 -32.02 24.68 -31 24 C-28.2389367 23.69858629 -25.57926963 23.49142006 -22.8125 23.375 C-20.234375 23.25125 -17.65625 23.1275 -15 23 C-15 16.4 -15 9.8 -15 3 C-9.68075744 0.87230298 -5.68708909 -0.16248826 0 0 Z " fill="#F0B52D" transform="translate(107,66)"/>
<path d="M0 0 C3 1 3 1 4 3 C19.84 3.495 19.84 3.495 36 4 C32.56839515 6.57370364 30.97153585 7.52878348 27.0625 8.625 C26.22847656 8.86476563 25.39445312 9.10453125 24.53515625 9.3515625 C19.64522905 10.60229889 15.51168416 11.12412429 10.4375 10.8125 C9.32246094 10.75707031 8.20742187 10.70164062 7.05859375 10.64453125 C3.50726663 9.8961673 2.26673703 8.76553002 0 6 C-0.66 7.32 -1.32 8.64 -2 10 C-7.61 10 -13.22 10 -19 10 C-19 14.62 -19 19.24 -19 24 C-29.625 28 -29.625 28 -33 28 C-33 27.34 -33 26.68 -33 26 C-33.66 26 -34.32 26 -35 26 C-35.8304278 24.21657202 -36.63829824 22.42263796 -37.4375 20.625 C-37.88996094 19.62726563 -38.34242187 18.62953125 -38.80859375 17.6015625 C-40 14 -40 14 -41 4 C-27.8 4 -14.6 4 -1 4 C-0.67 2.68 -0.34 1.36 0 0 Z " fill="#F5B82B" transform="translate(69,48)"/>
<path d="M0 0 C2.125 3.1875 2.125 3.1875 3 6 C4.134375 5.67 5.26875 5.34 6.4375 5 C10.99795849 3.84152933 15.32161006 3.80506709 20 4 C19.57847656 4.54269531 19.15695313 5.08539063 18.72265625 5.64453125 C18.17480469 6.35996094 17.62695312 7.07539062 17.0625 7.8125 C16.24458984 8.87404297 16.24458984 8.87404297 15.41015625 9.95703125 C13.83143752 12.04125052 13.83143752 12.04125052 13 15 C12.34 15 11.68 15 11 15 C11 16.65 11 18.3 11 20 C6.05 20 1.1 20 -4 20 C-4.495 18.02 -4.495 18.02 -5 16 C-3.02 16.66 -1.04 17.32 1 18 C2.32 16.02 3.64 14.04 5 12 C2.36 12.33 -0.28 12.66 -3 13 C-3 10.69 -3 8.38 -3 6 C-3.95261719 6.22816406 -4.90523437 6.45632812 -5.88671875 6.69140625 C-7.76810547 7.12259766 -7.76810547 7.12259766 -9.6875 7.5625 C-10.92886719 7.85253906 -12.17023438 8.14257812 -13.44921875 8.44140625 C-16.84436028 8.97551542 -18.74776479 8.91062586 -22 8 C-22.81082031 7.82339844 -23.62164062 7.64679687 -24.45703125 7.46484375 C-25.23433594 7.29082031 -26.01164062 7.11679687 -26.8125 6.9375 C-27.60269531 6.76089844 -28.39289062 6.58429687 -29.20703125 6.40234375 C-29.79871094 6.26957031 -30.39039062 6.13679688 -31 6 C-31 8.31 -31 10.62 -31 13 C-33.31 12.67 -35.62 12.34 -38 12 C-37.01 13.485 -37.01 13.485 -36 15 C-36 16.32 -36 17.64 -36 19 C-34.35 18.67 -32.7 18.34 -31 18 C-31 18.66 -31 19.32 -31 20 C-34.96 20 -38.92 20 -43 20 C-43 18.35 -43 16.7 -43 15 C-43.66 15 -44.32 15 -45 15 C-46.25390625 13.35546875 -46.25390625 13.35546875 -47.5625 11.1875 C-47.99691406 10.47980469 -48.43132813 9.77210937 -48.87890625 9.04296875 C-50 7 -50 7 -51 4 C-49.2709226 3.97274659 -47.54171824 3.95349013 -45.8125 3.9375 C-44.84957031 3.92589844 -43.88664062 3.91429687 -42.89453125 3.90234375 C-40.14423487 3.99513378 -37.67520409 4.37888315 -35 5 C-34.835 4.236875 -34.67 3.47375 -34.5 2.6875 C-32.73057464 -0.48272044 -31.0958927 -1.40340397 -27.66796875 -2.49609375 C-18.99161121 -4.13482014 -7.9319643 -4.45560958 0 0 Z " fill="#F0B62F" transform="translate(86,26)"/>
<path d="M0 0 C0.99 0 1.98 0 3 0 C3 1.65 3 3.3 3 5 C3.99 5.33 4.98 5.66 6 6 C3.14415227 7.90389849 1.0688238 8.69462177 -2.1875 9.625 C-3.08855469 9.88539062 -3.98960938 10.14578125 -4.91796875 10.4140625 C-5.60503906 10.60742188 -6.29210937 10.80078125 -7 11 C-6.44828125 10.85691406 -5.8965625 10.71382812 -5.328125 10.56640625 C-1.247389 9.57360974 2.88019861 8.8131187 7 8 C7 13.94 7 19.88 7 26 C3.20637248 27.89681376 -1.43355597 27.41584252 -5.6171875 27.62109375 C-8.89888274 27.7844994 -8.89888274 27.7844994 -11.16015625 29.1171875 C-13 30 -13 30 -15.19140625 29.57421875 C-15.97386719 29.28160156 -16.75632812 28.98898438 -17.5625 28.6875 C-23.01859228 26.84982957 -28.27436214 26.31567205 -34 26 C-34 24.35 -34 22.7 -34 21 C-27.4 18.69 -20.8 16.38 -14 14 C-15.65 14 -17.3 14 -19 14 C-19 13.01 -19 12.02 -19 11 C-17.68 11.33 -16.36 11.66 -15 12 C-15.33 11.01 -15.66 10.02 -16 9 C-12 9 -12 9 -10 10 C-10.33 7.03 -10.66 4.06 -11 1 C-10.34 1 -9.68 1 -9 1 C-8.34 3.31 -7.68 5.62 -7 8 C-6.34 8 -5.68 8 -5 8 C-5 6.35 -5 4.7 -5 3 C-4.34 3.33 -3.68 3.66 -3 4 C-3 4.66 -3 5.32 -3 6 C-2.34 6 -1.68 6 -1 6 C-1.020625 5.195625 -1.04125 4.39125 -1.0625 3.5625 C-1 1 -1 1 0 0 Z " fill="#3F3059" transform="translate(85,63)"/>
<path d="M0 0 C1.65 0 3.3 0 5 0 C5.33 0.99 5.66 1.98 6 3 C9.96 3 13.92 3 18 3 C17.67 4.65 17.34 6.3 17 8 C18.32 8.66 19.64 9.32 21 10 C21 10.66 21 11.32 21 12 C20.21753906 12.06058594 19.43507812 12.12117188 18.62890625 12.18359375 C17.61699219 12.26738281 16.60507813 12.35117187 15.5625 12.4375 C14.55316406 12.51871094 13.54382813 12.59992187 12.50390625 12.68359375 C10.06359221 12.73211468 10.06359221 12.73211468 9 14 C6.43302453 14.14260975 4.38038406 14.12703392 1.9296875 13.30859375 C-2.60232031 12.83122226 -6.37180918 14.46499378 -10.625 15.9375 C-12.32426056 16.51285023 -14.02473695 17.08462538 -15.7265625 17.65234375 C-16.84925537 18.03894165 -16.84925537 18.03894165 -17.99462891 18.43334961 C-20 19 -20 19 -23 19 C-23.38909985 17.54536519 -23.76088029 16.08608793 -24.125 14.625 C-24.33382812 13.81289063 -24.54265625 13.00078125 -24.7578125 12.1640625 C-24.83773437 11.44992188 -24.91765625 10.73578125 -25 10 C-23 8 -23 8 -19.8125 7.5625 C-15.65633264 6.94929498 -12.80257503 5.71488678 -9 4 C-8.34 4 -7.68 4 -7 4 C-7 3.34 -7 2.68 -7 2 C-4.69 2 -2.38 2 0 2 C0 1.34 0 0.68 0 0 Z " fill="#3E305F" transform="translate(124,46)"/>
<path d="M0 0 C8.50829268 0.87121951 8.50829268 0.87121951 11.625 1.6875 C15.03032798 2.13556947 17.72524679 0.95984146 21 0 C23.33215844 -0.07403678 25.66860788 -0.09515886 28 0 C28 2.31 28 4.62 28 7 C28.66 6.67 29.32 6.34 30 6 C31.99960012 5.960008 34.00047242 5.95653201 36 6 C34.79618552 8.49361571 33.54571278 10.68143083 32 13 C30 12 28 11 26 10 C26 10.66 26 11.32 26 12 C25.071875 11.67 24.14375 11.34 23.1875 11 C16.4120891 9.06811095 9.42862084 9.0757898 3 12 C6.3 12.33 9.6 12.66 13 13 C13 13.66 13 14.32 13 15 C4.75 15 -3.5 15 -12 15 C-12 14.67 -12 14.34 -12 14 C-8.04 14 -4.08 14 0 14 C0 13.34 0 12.68 0 12 C-1.65 12.33 -3.3 12.66 -5 13 C-5.66 10.69 -6.32 8.38 -7 6 C-4.69 6.33 -2.38 6.66 0 7 C0 4.69 0 2.38 0 0 Z " fill="#765A51" transform="translate(55,32)"/>
<path d="M0 0 C0.33 1.65 0.66 3.3 1 5 C6.445 4.01 6.445 4.01 12 3 C11.67 3.99 11.34 4.98 11 6 C10.34 5.67 9.68 5.34 9 5 C9.99 6.32 10.98 7.64 12 9 C11.34 9.66 10.68 10.32 10 11 C10 11.66 10 12.32 10 13 C8.68 12.67 7.36 12.34 6 12 C6 12.99 6 13.98 6 15 C7.98 14.67 9.96 14.34 12 14 C10.72807632 16.54384735 9.92200108 16.58575975 7.2890625 17.5078125 C6.53882812 17.77207031 5.78859375 18.03632812 5.015625 18.30859375 C4.22671875 18.57800781 3.4378125 18.84742187 2.625 19.125 C1.45324219 19.54072266 1.45324219 19.54072266 0.2578125 19.96484375 C-5.59702124 22 -5.59702124 22 -9 22 C-9.33 23.32 -9.66 24.64 -10 26 C-10 24.68 -10 23.36 -10 22 C-11.32 22.33 -12.64 22.66 -14 23 C-13.505 21.515 -13.505 21.515 -13 20 C-13.27769908 17.6593935 -13.60539977 15.32375692 -14 13 C-13.01 13.33 -12.02 13.66 -11 14 C-10.67 13.34 -10.34 12.68 -10 12 C-9.01 12 -8.02 12 -7 12 C-7 12.99 -7 13.98 -7 15 C-6.34 15 -5.68 15 -5 15 C-5 13.35 -5 11.7 -5 10 C-0.25 10.875 -0.25 10.875 2 12 C1.67 10.35 1.34 8.7 1 7 C0.37351562 7.2165625 -0.25296875 7.433125 -0.8984375 7.65625 C-1.71570312 7.9346875 -2.53296875 8.213125 -3.375 8.5 C-4.18710937 8.7784375 -4.99921875 9.056875 -5.8359375 9.34375 C-8 10 -8 10 -10 10 C-10 9.34 -10 8.68 -10 8 C-7.36 7.01 -4.72 6.02 -2 5 C-3.32 4.67 -4.64 4.34 -6 4 C-6 2.68 -6 1.36 -6 0 C-3.50907189 -1.24546405 -2.58919267 -0.7767578 0 0 Z " fill="#675464" transform="translate(60,62)"/>
<path d="M0 0 C3.40667322 0.44824648 5.07914607 1.05276405 8 3 C10.71095824 3.27593174 13.34575251 3.4640149 16.0625 3.5625 C23.76150527 3.88075264 23.76150527 3.88075264 26 5 C25.67 7.64 25.34 10.28 25 13 C24.0821875 12.97679687 23.164375 12.95359375 22.21875 12.9296875 C15.43176184 12.82987885 9.4806715 12.92618512 3 15 C-0.71185089 10.31984018 -1.22086384 6.96332379 -1 1 C-0.67 0.67 -0.34 0.34 0 0 Z " fill="#3E2F5E" transform="translate(86,18)"/>
<path d="M0 0 C3 1 3 1 4 3 C19.84 3.495 19.84 3.495 36 4 C32.56839515 6.57370364 30.97153585 7.52878348 27.0625 8.625 C26.22847656 8.86476563 25.39445312 9.10453125 24.53515625 9.3515625 C19.64522905 10.60229889 15.51168416 11.12412429 10.4375 10.8125 C9.32246094 10.75707031 8.20742187 10.70164062 7.05859375 10.64453125 C3.50726663 9.8961673 2.26673703 8.76553002 0 6 C-0.33 6.66 -0.66 7.32 -1 8 C-1 7.01 -1 6.02 -1 5 C-13.87 5 -26.74 5 -40 5 C-40 6.65 -40 8.3 -40 10 C-40.33 10 -40.66 10 -41 10 C-41 8.02 -41 6.04 -41 4 C-27.8 4 -14.6 4 -1 4 C-0.67 2.68 -0.34 1.36 0 0 Z " fill="#CD9F45" transform="translate(69,48)"/>
<path d="M0 0 C17.04781157 -0.56477413 17.04781157 -0.56477413 25 3 C25.66 3.66 26.32 4.32 27 5 C26.67 5.33 26.34 5.66 26 6 C25.63239269 8.32817964 25.29758419 10.6618385 25 13 C23.7625 12.690625 22.525 12.38125 21.25 12.0625 C15.54835497 10.78031188 9.82126496 10.37429453 4 10 C4 7.03 4 4.06 4 1 C2.68 0.67 1.36 0.34 0 0 Z " fill="#8D7A7A" transform="translate(60,13)"/>
<path d="M0 0 C3 1 3 1 4 3 C6.8159849 3.46898963 6.8159849 3.46898963 10.0625 3.625 C11.71958984 3.73714844 11.71958984 3.73714844 13.41015625 3.8515625 C14.26480469 3.90054688 15.11945313 3.94953125 16 4 C13.46381075 5.69079284 11.73221872 6.54430007 8.91015625 7.47265625 C8.12576172 7.73240234 7.34136719 7.99214844 6.53320312 8.25976562 C5.71787109 8.52466797 4.90253906 8.78957031 4.0625 9.0625 C3.25103516 9.33126953 2.43957031 9.60003906 1.60351562 9.87695312 C-1.91243963 11.0335553 -5.39899591 12.13658951 -9 13 C-9.33 12.01 -9.66 11.02 -10 10 C-9.67 9.34 -9.34 8.68 -9 8 C-10.98 8 -12.96 8 -15 8 C-15 9.32 -15 10.64 -15 12 C-13.35 12.33 -11.7 12.66 -10 13 C-13.16789693 14.75994274 -15.24364431 15.24872886 -19 16 C-19 12.04 -19 8.08 -19 4 C-17.79601563 3.96261719 -16.59203125 3.92523438 -15.3515625 3.88671875 C-13.77600989 3.82107072 -12.20049046 3.75462299 -10.625 3.6875 C-9.8309375 3.66494141 -9.036875 3.64238281 -8.21875 3.61914062 C-6.13784419 3.52214925 -4.06558668 3.27005175 -2 3 C-1.34 2.01 -0.68 1.02 0 0 Z " fill="#433153" transform="translate(69,54)"/>
<path d="M0 0 C0 2.97 0 5.94 0 9 C-3.63 9.99 -7.26 10.98 -11 12 C-11 12.66 -11 13.32 -11 14 C-13.25 14.6875 -13.25 14.6875 -16 15 C-18.3125 13.75 -18.3125 13.75 -20 12 C-20 11.01 -20 10.02 -20 9 C-24.29 9 -28.58 9 -33 9 C-33 8.67 -33 8.34 -33 8 C-32.11957031 7.97421875 -31.23914062 7.9484375 -30.33203125 7.921875 C-28.58986328 7.83679688 -28.58986328 7.83679688 -26.8125 7.75 C-25.66394531 7.70359375 -24.51539063 7.6571875 -23.33203125 7.609375 C-19.46794466 6.90269562 -17.87666574 5.60082108 -15 3 C-9.65927704 0.17848598 -5.88805121 -0.30989743 0 0 Z " fill="#7D6763" transform="translate(64,14)"/>
<path d="M0 0 C0 8.28465129 -4.24391057 14.46731685 -9 21 C-9.99 21.66 -10.98 22.32 -12 23 C-12.66 22.67 -13.32 22.34 -14 22 C-14.05411124 19.58303128 -14.09372278 17.16728213 -14.125 14.75 C-14.14175781 14.06808594 -14.15851563 13.38617188 -14.17578125 12.68359375 C-14.21213482 8.9391765 -14.07944349 6.17647273 -12 3 C-11.34 3 -10.68 3 -10 3 C-10 2.34 -10 1.68 -10 1 C-6.59437148 0.22157062 -3.49234244 -0.09978121 0 0 Z " fill="#F6BA2B" transform="translate(107,66)"/>
<path d="M0 0 C0.66 0.33 1.32 0.66 2 1 C0.68 1.33 -0.64 1.66 -2 2 C-1.34 4.97 -0.68 7.94 0 11 C1.98 10.67 3.96 10.34 6 10 C6.3125 12.3125 6.3125 12.3125 6 15 C1.69816755 18.38932254 -3.83558012 20.27852671 -9 22 C-9.33 22.99 -9.66 23.98 -10 25 C-10.66 25 -11.32 25 -12 25 C-11.01 21.535 -11.01 21.535 -10 18 C-14.455 19.485 -14.455 19.485 -19 21 C-16.98083229 16.96166458 -15.58033211 15.54498074 -12.125 12.8125 C-10.82949219 11.77029297 -10.82949219 11.77029297 -9.5078125 10.70703125 C-7.21677807 9.14755766 -5.70205392 8.4210177 -3 8 C-3 5.69 -3 3.38 -3 1 C-2.01 0.67 -1.02 0.34 0 0 Z " fill="#4B3E6A" transform="translate(24,80)"/>
<path d="M0 0 C-0.9590625 0.309375 -0.9590625 0.309375 -1.9375 0.625 C-4.34925077 1.89538209 -4.34925077 1.89538209 -4.75 5.125 C-4.8325 6.07375 -4.915 7.0225 -5 8 C-5.66 8 -6.32 8 -7 8 C-7 7.34 -7 6.68 -7 6 C-7.99 5.67 -8.98 5.34 -10 5 C-9.34 5 -8.68 5 -8 5 C-8 4.34 -8 3.68 -8 3 C-9.65 3.33 -11.3 3.66 -13 4 C-13 4.99 -13 5.98 -13 7 C-13.99 7.495 -13.99 7.495 -15 8 C-15 9.98 -15 11.96 -15 14 C-15.99 13.67 -16.98 13.34 -18 13 C-18.33 12.34 -18.66 11.68 -19 11 C-19.33 12.32 -19.66 13.64 -20 15 C-20.66 15 -21.32 15 -22 15 C-23.4606285 12.35261084 -24 11.10551666 -24 8 C-25.20561184 8.98267859 -25.20561184 8.98267859 -25.09765625 10.84765625 C-25.08605469 11.57855469 -25.07445313 12.30945313 -25.0625 13.0625 C-25.041875 14.361875 -25.02125 15.66125 -25 17 C-25.99 16.67 -26.98 16.34 -28 16 C-28 15.34 -28 14.68 -28 14 C-28.99 13.67 -29.98 13.34 -31 13 C-31 12.34 -31 11.68 -31 11 C-30.34 11 -29.68 11 -29 11 C-28.67 10.34 -28.34 9.68 -28 9 C-28.54269531 9.22816406 -29.08539063 9.45632812 -29.64453125 9.69140625 C-30.35996094 9.97886719 -31.07539062 10.26632813 -31.8125 10.5625 C-32.52019531 10.85253906 -33.22789063 11.14257812 -33.95703125 11.44140625 C-36 12 -36 12 -39 11 C-29.84785547 5.74238506 -19.30271628 3.04926291 -9 1 C-8.154375 0.62875 -7.30875 0.2575 -6.4375 -0.125 C-3.75250938 -1.08884279 -2.62858044 -0.97354831 0 0 Z " fill="#4F3E5B" transform="translate(100,56)"/>
<path d="M0 0 C5.28 0 10.56 0 16 0 C16.66 1.32 17.32 2.64 18 4 C21.56206661 4.81870185 21.56206661 4.81870185 25 5 C24.34 6.32 23.68 7.64 23 9 C22.29875 8.83757813 21.5975 8.67515625 20.875 8.5078125 C17.85697435 7.97473732 15.06286663 7.86718656 12 7.875 C10.4840625 7.87113281 10.4840625 7.87113281 8.9375 7.8671875 C6.18285256 7.99173273 3.68161197 8.37889135 1 9 C1.020625 8.071875 1.04125 7.14375 1.0625 6.1875 C1.15769604 2.97713989 1.15769604 2.97713989 0 0 Z " fill="#40325F" transform="translate(28,23)"/>
<path d="M0 0 C8.36028432 0.85606397 8.36028432 0.85606397 11.5 1.5625 C15.32077778 2.23113611 19.13121138 2.0758586 23 2 C23 2.66 23 3.32 23 4 C18.545 4.495 18.545 4.495 14 5 C13.67 5.99 13.34 6.98 13 8 C7.06 8.495 7.06 8.495 1 9 C1 9.66 1 10.32 1 11 C-0.65 11 -2.3 11 -4 11 C-3.525625 10.67 -3.05125 10.34 -2.5625 10 C-0.14208385 6.90186733 -0.31801083 3.87973208 0 0 Z " fill="#765A4F" transform="translate(55,32)"/>
<path d="M0 0 C3.96 0 7.92 0 12 0 C11.67 1.65 11.34 3.3 11 5 C12.32 5.66 13.64 6.32 15 7 C15 7.66 15 8.32 15 9 C14.21753906 9.06058594 13.43507812 9.12117188 12.62890625 9.18359375 C11.61699219 9.26738281 10.60507813 9.35117187 9.5625 9.4375 C8.55316406 9.51871094 7.54382813 9.59992187 6.50390625 9.68359375 C4.06359221 9.73211468 4.06359221 9.73211468 3 11 C-0.16620913 11.34229288 -1.60483847 11.25632099 -4.3125 9.5 C-4.869375 9.005 -5.42625 8.51 -6 8 C-4.35 7.67 -2.7 7.34 -1 7 C-0.67 4.69 -0.34 2.38 0 0 Z " fill="#3F3260" transform="translate(130,49)"/>
<path d="M0 0 C12.87 0 25.74 0 39 0 C39 0.99 39 1.98 39 3 C25.47 3 11.94 3 -2 3 C-1.34 2.67 -0.68 2.34 0 2 C0 1.34 0 0.68 0 0 Z " fill="#382957" transform="translate(29,48)"/>
<path d="M0 0 C0.99 0.66 1.98 1.32 3 2 C2.67 3.32 2.34 4.64 2 6 C1.01 6 0.02 6 -1 6 C-2.07525194 8.65228812 -3.09456151 11.28368454 -4 14 C-3.01 14.33 -2.02 14.66 -1 15 C-2.65 15 -4.3 15 -6 15 C-6 15.66 -6 16.32 -6 17 C-14.91 17 -23.82 17 -33 17 C-33 16.34 -33 15.68 -33 15 C-28.545 14.505 -28.545 14.505 -24 14 C-24 14.66 -24 15.32 -24 16 C-19.05 16 -14.1 16 -9 16 C-9 14.35 -9 12.7 -9 11 C-8.34 11 -7.68 11 -7 11 C-6.95875 10.29875 -6.9175 9.5975 -6.875 8.875 C-5.61066601 4.72075973 -3.18471218 2.91367285 0 0 Z " fill="#7F634E" transform="translate(106,30)"/>
<path d="M0 0 C2.31 0.33 4.62 0.66 7 1 C5.515 2.485 5.515 2.485 4 4 C5.32 4.33 6.64 4.66 8 5 C8 4.34 8 3.68 8 3 C10.35236086 2.60642611 12.70495693 2.23496416 15.0625 1.875 C15.71927734 1.76285156 16.37605469 1.65070312 17.05273438 1.53515625 C21.90220987 0.81848499 25.40270978 1.39066707 30 3 C30.99 3.33 31.98 3.66 33 4 C33 4.66 33 5.32 33 6 C32.071875 5.67 31.14375 5.34 30.1875 5 C23.4120891 3.06811095 16.42862084 3.0757898 10 6 C13.3 6.33 16.6 6.66 20 7 C20 7.66 20 8.32 20 9 C11.75 9 3.5 9 -5 9 C-5 8.67 -5 8.34 -5 8 C-1.04 8 2.92 8 7 8 C7 7.34 7 6.68 7 6 C5.35 6.33 3.7 6.66 2 7 C1.34 4.69 0.68 2.38 0 0 Z " fill="#9F7B4C" transform="translate(48,38)"/>
<path d="M0 0 C3.40667322 0.44824648 5.07914607 1.05276405 8 3 C10.71095824 3.27593174 13.34575251 3.4640149 16.0625 3.5625 C23.76150527 3.88075264 23.76150527 3.88075264 26 5 C25.67 5.66 25.34 6.32 25 7 C24.21882813 6.76990234 24.21882813 6.76990234 23.421875 6.53515625 C20.36721485 5.86017489 17.36984029 5.65588882 14.25 5.4375 C13.07953125 5.35371094 11.9090625 5.26992188 10.703125 5.18359375 C9.81109375 5.12300781 8.9190625 5.06242187 8 5 C7.87625 5.61875 7.7525 6.2375 7.625 6.875 C7 9 7 9 5 11 C2.4375 10.75 2.4375 10.75 0 10 C-1.49106457 7.01787087 -1.11941467 4.28390342 -1 1 C-0.67 0.67 -0.34 0.34 0 0 Z " fill="#564665" transform="translate(86,18)"/>
<path d="M0 0 C8.58 0 17.16 0 26 0 C26 0.66 26 1.32 26 2 C20.10448008 5.14163948 16.08555595 5.17042624 9.5625 4.1875 C8.73556641 4.07857422 7.90863281 3.96964844 7.05664062 3.85742188 C5.03541481 3.58870399 3.01730445 3.29672521 1 3 C0.67 2.01 0.34 1.02 0 0 Z " fill="#F5B92F" transform="translate(72,53)"/>
<path d="M0 0 C7.92 0 15.84 0 24 0 C24 0.33 24 0.66 24 1 C21.69 1 19.38 1 17 1 C17 1.66 17 2.32 17 3 C7.58997722 7.59225513 7.58997722 7.59225513 3 7 C3 6.67 3 6.34 3 6 C-11.85 5.505 -11.85 5.505 -27 5 C-27.33 4.34 -27.66 3.68 -28 3 C-26.96069336 3.00523682 -25.92138672 3.01047363 -24.85058594 3.01586914 C-20.98910384 3.0339898 -17.12762548 3.04545786 -13.26611328 3.05493164 C-11.59585945 3.05995569 -9.92561001 3.06677605 -8.25537109 3.07543945 C-5.85252804 3.08758946 -3.44974321 3.09324763 -1.046875 3.09765625 C0.0705307 3.10539818 0.0705307 3.10539818 1.21051025 3.11329651 C4.72412219 3.1136754 7.56095063 2.85976234 11 2 C5.555 1.505 5.555 1.505 0 1 C0 0.67 0 0.34 0 0 Z " fill="#69545B" transform="translate(100,47)"/>
<path d="M0 0 C0.66 0 1.32 0 2 0 C6.40774487 8.261959 6.40774487 8.261959 7 13 C7.66 13 8.32 13 9 13 C9 13.66 9 14.32 9 15 C2.4 15 -4.2 15 -11 15 C-11.33 16.32 -11.66 17.64 -12 19 C-12 17.35 -12 15.7 -12 14 C-7.38 13.67 -2.76 13.34 2 13 C1.34 12.01 0.68 11.02 0 10 C-0.1953125 7.51953125 -0.1953125 7.51953125 -0.125 4.8125 C-0.10695313 3.91144531 -0.08890625 3.01039062 -0.0703125 2.08203125 C-0.04710937 1.39496094 -0.02390625 0.70789062 0 0 Z " fill="#B8B3BF" transform="translate(31,32)"/>
<path d="M0 0 C13.53 0 27.06 0 41 0 C35.28670766 2.85664617 31.08233138 3.11416042 24.73046875 2.87890625 C24.04946609 2.85529526 23.36846344 2.83168427 22.66682434 2.80735779 C20.50681088 2.73121614 18.34720172 2.64698181 16.1875 2.5625 C14.71681619 2.50922961 13.24611307 2.45648961 11.77539062 2.40429688 C8.18334976 2.27566911 4.59162595 2.13978528 1 2 C0.67 1.34 0.34 0.68 0 0 Z " fill="#382B5C" transform="translate(74,48)"/>
<path d="M0 0 C0.33 0.66 0.66 1.32 1 2 C0.28972656 2.27714844 -0.42054687 2.55429687 -1.15234375 2.83984375 C-2.53099609 3.38318359 -2.53099609 3.38318359 -3.9375 3.9375 C-4.85402344 4.29714844 -5.77054688 4.65679687 -6.71484375 5.02734375 C-8.92418533 5.7996218 -8.92418533 5.7996218 -10 7 C-10.07148199 8.35243917 -10.08399454 9.70834367 -10.0625 11.0625 C-10.041875 12.361875 -10.02125 13.66125 -10 15 C-10.99 14.67 -11.98 14.34 -13 14 C-13 13.34 -13 12.68 -13 12 C-13.99 11.67 -14.98 11.34 -16 11 C-16 10.34 -16 9.68 -16 9 C-15.34 9 -14.68 9 -14 9 C-13.67 8.34 -13.34 7.68 -13 7 C-13.54269531 7.22816406 -14.08539063 7.45632812 -14.64453125 7.69140625 C-15.71767578 8.12259766 -15.71767578 8.12259766 -16.8125 8.5625 C-17.52019531 8.85253906 -18.22789063 9.14257812 -18.95703125 9.44140625 C-21 10 -21 10 -24 9 C-16.41217484 4.73184835 -8.30398118 2.45894588 0 0 Z " fill="#735D63" transform="translate(85,58)"/>
<path d="M0 0 C0.928125 0.495 1.85625 0.99 2.8125 1.5 C2.8125 1.83 2.8125 2.16 2.8125 2.5 C1.37609829 2.69573608 -0.06169504 2.88127816 -1.5 3.0625 C-2.30050781 3.16691406 -3.10101563 3.27132812 -3.92578125 3.37890625 C-6.1875 3.5 -6.1875 3.5 -9.1875 2.5 C-11.41568441 2.43062938 -13.64584524 2.41542916 -15.875 2.4375 C-17.05449219 2.44652344 -18.23398437 2.45554688 -19.44921875 2.46484375 C-20.80466797 2.48224609 -20.80466797 2.48224609 -22.1875 2.5 C-15.86150179 -2.51717099 -7.47059876 -3.23878719 0 0 Z " fill="#87684D" transform="translate(78.1875,42.5)"/>
<path d="M0 0 C0.33 1.32 0.66 2.64 1 4 C2.62808594 4.16435547 2.62808594 4.16435547 4.2890625 4.33203125 C5.73444152 4.49158608 7.17975051 4.65177611 8.625 4.8125 C9.69427734 4.91788086 9.69427734 4.91788086 10.78515625 5.02539062 C15.41913863 5.55681062 18.89147841 6.63468394 23 9 C20.30410561 10.34794719 18.96922612 9.40931243 16.21875 8.546875 C11.89589691 7.48138304 7.43102473 7.30448271 3 7 C2.67 8.32 2.34 9.64 2 11 C0.82739389 9.71372289 -0.3379283 8.42080217 -1.5 7.125 C-2.1496875 6.40570313 -2.799375 5.68640625 -3.46875 4.9453125 C-5 3 -5 3 -5 1 C-2 0 -2 0 0 0 Z " fill="#CC9D3F" transform="translate(50,84)"/>
<path d="M0 0 C3.82669043 3.42388092 5.72278474 6.00724943 7 11 C7.66 11 8.32 11 9 11 C9 12.65 9 14.3 9 16 C8.01 16.33 7.02 16.66 6 17 C6 16.34 6 15.68 6 15 C5.34 15 4.68 15 4 15 C3.731875 14.278125 3.46375 13.55625 3.1875 12.8125 C2.08913253 9.95861751 2.08913253 9.95861751 0.3125 7.5 C-1 5 -1 5 -0.6875 2.1875 C-0.460625 1.465625 -0.23375 0.74375 0 0 Z " fill="#8A6E59" transform="translate(34,30)"/>
<path d="M0 0 C0.33 1.65 0.66 3.3 1 5 C-1.31 4.34 -3.62 3.68 -6 3 C-6 4.65 -6 6.3 -6 8 C-6.66 8 -7.32 8 -8 8 C-8 7.01 -8 6.02 -8 5 C-8.99 5 -9.98 5 -11 5 C-11.33 5.99 -11.66 6.98 -12 8 C-12.99 7.34 -13.98 6.68 -15 6 C-15.33 6.66 -15.66 7.32 -16 8 C-16 7.34 -16 6.68 -16 6 C-17.98 6.33 -19.96 6.66 -22 7 C-19.89734696 4.89734696 -18.96227255 4.51868443 -16.19140625 3.7109375 C-15.44439453 3.49179688 -14.69738281 3.27265625 -13.92773438 3.046875 C-13.14720703 2.82515625 -12.36667969 2.6034375 -11.5625 2.375 C-10.78583984 2.14554687 -10.00917969 1.91609375 -9.20898438 1.6796875 C-5.99111177 0.74841687 -3.37360973 0 0 0 Z " fill="#584968" transform="translate(61,69)"/>
<path d="M0 0 C1.12329712 0.07069702 1.12329712 0.07069702 2.26928711 0.14282227 C3.07817383 0.19116211 3.88706055 0.23950195 4.72045898 0.28930664 C5.99566406 0.37341797 5.99566406 0.37341797 7.29663086 0.45922852 C8.57763672 0.53753906 8.57763672 0.53753906 9.88452148 0.61743164 C12.00135081 0.74751612 14.1177833 0.88402822 16.23413086 1.02172852 C16.23413086 1.35172852 16.23413086 1.68172852 16.23413086 2.02172852 C10.62413086 2.02172852 5.01413086 2.02172852 -0.76586914 2.02172852 C-0.76586914 6.64172852 -0.76586914 11.26172852 -0.76586914 16.02172852 C-3.73586914 16.68172852 -6.70586914 17.34172852 -9.76586914 18.02172852 C-6.14086914 15.02172852 -6.14086914 15.02172852 -2.76586914 15.02172852 C-2.7774707 14.02270508 -2.78907227 13.02368164 -2.80102539 11.99438477 C-2.81004883 10.7040332 -2.81907227 9.41368164 -2.82836914 8.08422852 C-2.8399707 6.79645508 -2.85157227 5.50868164 -2.86352539 4.18188477 C-2.73533543 0.03365752 -2.73533543 0.03365752 0 0 Z " fill="#D4A33F" transform="translate(50.765869140625,55.978271484375)"/>
<path d="M0 0 C1.32 0.33 2.64 0.66 4 1 C3.34 1 2.68 1 2 1 C2.33 3.31 2.66 5.62 3 8 C8.94 7.505 8.94 7.505 15 7 C15 7.66 15 8.32 15 9 C14.21753906 9.06058594 13.43507812 9.12117188 12.62890625 9.18359375 C11.61699219 9.26738281 10.60507813 9.35117187 9.5625 9.4375 C8.55316406 9.51871094 7.54382813 9.59992187 6.50390625 9.68359375 C4.06359221 9.73211468 4.06359221 9.73211468 3 11 C-0.16620913 11.34229288 -1.60483847 11.25632099 -4.3125 9.5 C-4.869375 9.005 -5.42625 8.51 -6 8 C-4.35 7.67 -2.7 7.34 -1 7 C-0.67 4.69 -0.34 2.38 0 0 Z " fill="#86767E" transform="translate(130,49)"/>
<path d="M0 0 C-0.33 0.99 -0.66 1.98 -1 3 C-1.928125 3.185625 -2.85625 3.37125 -3.8125 3.5625 C-7.6394247 5.288368 -7.82219087 6.1569364 -9.3125 9.9375 C-9.89868866 11.61691816 -10.46395852 13.30390978 -11 15 C-11.33 15.99 -11.66 16.98 -12 18 C-12.66 18 -13.32 18 -14 18 C-13.01 14.04 -12.02 10.08 -11 6 C-13.31 6.33 -15.62 6.66 -18 7 C-17 5 -17 5 -13.69140625 3.7109375 C-12.31762852 3.25789732 -10.94117319 2.81291651 -9.5625 2.375 C-8.86833984 2.14554688 -8.17417969 1.91609375 -7.45898438 1.6796875 C-2.29494513 0 -2.29494513 0 0 0 Z " fill="#B38943" transform="translate(118,60)"/>
<path d="M0 0 C-0.99 0 -1.98 0 -3 0 C-2.34 2.31 -1.68 4.62 -1 7 C-1.66 7.66 -2.32 8.32 -3 9 C-4.32 9 -5.64 9 -7 9 C-7 8.01 -7 7.02 -7 6 C-7.66 6 -8.32 6 -9 6 C-9 5.01 -9 4.02 -9 3 C-9.66 2.67 -10.32 2.34 -11 2 C-3.57142857 -1.57142857 -3.57142857 -1.57142857 0 0 Z " fill="#A8A2B3" transform="translate(60,15)"/>
<path d="M0 0 C0.33 0.99 0.66 1.98 1 3 C1.99 3 2.98 3 4 3 C4.33 2.34 4.66 1.68 5 1 C5 1.66 5 2.32 5 3 C5.99 3.33 6.98 3.66 8 4 C6.35 4 4.7 4 3 4 C3 4.66 3 5.32 3 6 C-5.91 6 -14.82 6 -24 6 C-24 5.34 -24 4.68 -24 4 C-19.545 3.505 -19.545 3.505 -15 3 C-15 3.66 -15 4.32 -15 5 C-10.05 5 -5.1 5 0 5 C0 3.35 0 1.7 0 0 Z " fill="#A78452" transform="translate(97,41)"/>
<path d="M0 0 C0 2.97 0 5.94 0 9 C-1.65 9 -3.3 9 -5 9 C-6.76462683 5.91190305 -7 4.76687864 -7 1 C-4 0 -4 0 0 0 Z " fill="#3F305E" transform="translate(64,14)"/>
<path d="M0 0 C0.99 0 1.98 0 3 0 C3 1.32 3 2.64 3 4 C2.01 4.495 2.01 4.495 1 5 C4.63 5 8.26 5 12 5 C12 5.66 12 6.32 12 7 C6.06 7.495 6.06 7.495 0 8 C0 8.66 0 9.32 0 10 C-1.65 10 -3.3 10 -5 10 C-4.54625 9.649375 -4.0925 9.29875 -3.625 8.9375 C-1.35338666 6.22903794 -0.83201146 3.39204672 0 0 Z " fill="#5C4446" transform="translate(56,33)"/>
<path d="M0 0 C0 2.64 0 5.28 0 8 C-0.99 7.67 -1.98 7.34 -3 7 C-3.33 6.34 -3.66 5.68 -4 5 C-4.33 6.32 -4.66 7.64 -5 9 C-5.66 9 -6.32 9 -7 9 C-8.4606285 6.35261084 -9 5.10551666 -9 2 C-3.375 0 -3.375 0 0 0 Z " fill="#7F7793" transform="translate(85,62)"/>
<path d="M0 0 C2.76276177 0.52268466 5.3260876 1.10869587 8 2 C7.6875 3.875 7.6875 3.875 7 6 C4 8 4 8 0 8 C0 5.36 0 2.72 0 0 Z " fill="#3C2E5F" transform="translate(73,14)"/>
<path d="M0 0 C-0.42683239 1.58624235 -0.86696158 3.1689098 -1.3125 4.75 C-1.55613281 5.63171875 -1.79976563 6.5134375 -2.05078125 7.421875 C-3.02125331 10.05772505 -4.21005644 11.85407326 -6 14 C-7.43558282 5.86503067 -7.43558282 5.86503067 -6 2 C-3.84898936 0.54286376 -2.59713506 0 0 0 Z " fill="#423460" transform="translate(117,62)"/>
<path d="M0 0 C0.33 0 0.66 0 1 0 C1.10824843 1.6026782 1.18570645 3.20745748 1.25 4.8125 C1.29640625 5.70582031 1.3428125 6.59914063 1.390625 7.51953125 C1 10 1 10 -0.828125 11.88671875 C-1.54484375 12.25410156 -2.2615625 12.62148438 -3 13 C-3.99 12.67 -4.98 12.34 -6 12 C-5.37240135 9.07120629 -4.41377341 6.63904371 -3 4 C-2.01 4 -1.02 4 0 4 C0 2.68 0 1.36 0 0 Z " fill="#B4AFBC" transform="translate(108,32)"/>
<path d="M0 0 C0 0.99 0 1.98 0 3 C0.66 3 1.32 3 2 3 C2.33 4.32 2.66 5.64 3 7 C0 9 0 9 -2.1875 8.625 C-2.785625 8.41875 -3.38375 8.2125 -4 8 C-4.6875 5.6875 -4.6875 5.6875 -5 3 C-3.40083326 0.79162689 -2.76966516 0 0 0 Z " fill="#3C2E5C" transform="translate(51,18)"/>
<path d="M0 0 C16.335 0.495 16.335 0.495 33 1 C29 4 29 4 26 4 C26 3.34 26 2.68 26 2 C17.42 2 8.84 2 0 2 C0 1.34 0 0.68 0 0 Z " fill="#C89D4B" transform="translate(72,51)"/>
<path d="M0 0 C0.99 0 1.98 0 3 0 C3.33 1.65 3.66 3.3 4 5 C-0.75 8 -0.75 8 -3 8 C-3.33 5.69 -3.66 3.38 -4 1 C-3.01 1.33 -2.02 1.66 -1 2 C-0.67 1.34 -0.34 0.68 0 0 Z " fill="#BDB8C5" transform="translate(50,74)"/>
<path d="M0 0 C6.50313209 -0.46450943 10.4174808 0.67424388 16 4 C16 4.99 16 5.98 16 7 C15.43152344 6.80664062 14.86304687 6.61328125 14.27734375 6.4140625 C9.54635062 4.81863577 4.81205575 3.33099414 0 2 C0 1.34 0 0.68 0 0 Z " fill="#594146" transform="translate(71,38)"/>
<path d="M0 0 C2.31 0 4.62 0 7 0 C7 2.31 7 4.62 7 7 C7.66 6.67 8.32 6.34 9 6 C10.99960012 5.960008 13.00047242 5.95653201 15 6 C13.84826645 8.46800047 12.95216435 10.04783565 11 12 C11 11.34 11 10.68 11 10 C8.525 9.01 8.525 9.01 6 8 C6 5.69 6 3.38 6 1 C4.02 1 2.04 1 0 1 C0 0.67 0 0.34 0 0 Z " fill="#9B7645" transform="translate(76,32)"/>
<path d="M0 0 C0.598125 0.185625 1.19625 0.37125 1.8125 0.5625 C4.16408762 1.22093687 4.16408762 1.22093687 7 0 C7 2.31 7 4.62 7 7 C6.21625 6.814375 5.4325 6.62875 4.625 6.4375 C2.02910225 5.74037734 2.02910225 5.74037734 0 7 C0 4.69 0 2.38 0 0 Z " fill="#CDCAD4" transform="translate(65,14)"/>
<path d="M0 0 C0 0.66 0 1.32 0 2 C-0.928125 1.67 -1.85625 1.34 -2.8125 1 C-9.61829123 -0.95044017 -17.13813477 -0.48364654 -24 1 C-24 0.34 -24 -0.32 -24 -1 C-15.59993843 -2.89982701 -7.83731453 -4.27808668 0 0 Z " fill="#C79D53" transform="translate(81,42)"/>
<path d="M0 0 C7.50769231 0.61538462 7.50769231 0.61538462 10 2.5625 C10.33 3.036875 10.66 3.51125 11 4 C10.67 4.33 10.34 4.66 10 5 C9.63239269 7.32817964 9.29758419 9.6618385 9 12 C7.02 11.34 5.04 10.68 3 10 C3 9.34 3 8.68 3 8 C4.32 8.33 5.64 8.66 7 9 C7.33 7.02 7.66 5.04 8 3 C7.01 3.33 6.02 3.66 5 4 C5 3.34 5 2.68 5 2 C3.35 1.67 1.7 1.34 0 1 C0 0.67 0 0.34 0 0 Z " fill="#6C5F74" transform="translate(76,14)"/>
<path d="M0 0 C0.66 0.33 1.32 0.66 2 1 C0.68 1.33 -0.64 1.66 -2 2 C-1.34 4.97 -0.68 7.94 0 11 C1.98 10.67 3.96 10.34 6 10 C6 10.66 6 11.32 6 12 C3.3125 12.8125 3.3125 12.8125 0 13 C-2.875 10.5625 -2.875 10.5625 -5 8 C-4.34 8 -3.68 8 -3 8 C-3 5.69 -3 3.38 -3 1 C-2.01 0.67 -1.02 0.34 0 0 Z " fill="#867274" transform="translate(24,80)"/>
<path d="M0 0 C0.5625 1.9375 0.5625 1.9375 1 4 C0.67 4.33 0.34 4.66 0 5 C0.66 5.66 1.32 6.32 2 7 C0.35 7.33 -1.3 7.66 -3 8 C-4.4606285 5.35261084 -5 4.10551666 -5 1 C-2 0 -2 0 0 0 Z " fill="#AAA4B6" transform="translate(92,59)"/>
<path d="M0 0 C0.33 0.66 0.66 1.32 1 2 C0.67 2.66 0.34 3.32 0 4 C2.31 4 4.62 4 7 4 C7.33 2.68 7.66 1.36 8 0 C8 1.65 8 3.3 8 5 C3.05 5 -1.9 5 -7 5 C-7.33 3.68 -7.66 2.36 -8 1 C-6.02 1.66 -4.04 2.32 -2 3 C-1.34 2.01 -0.68 1.02 0 0 Z " fill="#E3AF3F" transform="translate(89,41)"/>
<path d="M0 0 C1.98 0 3.96 0 6 0 C6 1.32 6 2.64 6 4 C6.66 4 7.32 4 8 4 C8 4.66 8 5.32 8 6 C5.525 5.01 5.525 5.01 3 4 C2.67 4.99 2.34 5.98 2 7 C0.5393715 4.35261084 0 3.10551666 0 0 Z " fill="#B3AFBE" transform="translate(62,69)"/>
<path d="M0 0 C1.98 0.495 1.98 0.495 4 1 C4.33 2.98 4.66 4.96 5 7 C3.35 7.33 1.7 7.66 0 8 C0 7.34 0 6.68 0 6 C0.99 6 1.98 6 3 6 C3 5.34 3 4.68 3 4 C1.68 4 0.36 4 -1 4 C-0.67 2.68 -0.34 1.36 0 0 Z " fill="#ACA7B8" transform="translate(96,57)"/>
<path d="M0 0 C0.79921875 0.02707031 1.5984375 0.05414063 2.421875 0.08203125 C3.02515625 0.11683594 3.6284375 0.15164062 4.25 0.1875 C3.26 1.6725 3.26 1.6725 2.25 3.1875 C-0.3515625 3.48046875 -0.3515625 3.48046875 -3.375 3.375 C-4.87933594 3.33439453 -4.87933594 3.33439453 -6.4140625 3.29296875 C-7.18492188 3.25816406 -7.95578125 3.22335938 -8.75 3.1875 C-5.74754796 0.56379764 -3.97853212 -0.17552348 0 0 Z " fill="#423050" transform="translate(64.75,41.8125)"/>
<path d="M0 0 C1.32 0.33 2.64 0.66 4 1 C3.34 1 2.68 1 2 1 C2 2.32 2 3.64 2 5 C3.65 5.33 5.3 5.66 7 6 C4.35261084 7.4606285 3.10551666 8 0 8 C0 5.36 0 2.72 0 0 Z " fill="#473863" transform="translate(52,61)"/>
<path d="M0 0 C0 0.99 0 1.98 0 3 C1.32 3.66 2.64 4.32 4 5 C1.36 5.66 -1.28 6.32 -4 7 C-4.99 5.35 -5.98 3.7 -7 2 C-6.21625 2.04125 -5.4325 2.0825 -4.625 2.125 C-1.83883881 2.28728734 -1.83883881 2.28728734 0 0 Z " fill="#4B374B" transform="translate(93,26)"/>
<path d="M0 0 C-0.66 1.32 -1.32 2.64 -2 4 C-7.28 3.34 -12.56 2.68 -18 2 C-18 1.67 -18 1.34 -18 1 C-16.12528812 0.83012319 -14.25021305 0.66425224 -12.375 0.5 C-11.33085938 0.4071875 -10.28671875 0.314375 -9.2109375 0.21875 C-6.12853212 0.00875645 -3.08834771 -0.03709727 0 0 Z " fill="#5E4545" transform="translate(53,28)"/>
<path d="M0 0 C-0.99 0 -1.98 0 -3 0 C-3 1.32 -3 2.64 -3 4 C-4.32 4 -5.64 4 -7 4 C-7.66 4.66 -8.32 5.32 -9 6 C-9 5.01 -9 4.02 -9 3 C-9.66 2.67 -10.32 2.34 -11 2 C-3.57142857 -1.57142857 -3.57142857 -1.57142857 0 0 Z " fill="#878099" transform="translate(60,15)"/>
<path d="M0 0 C1.875 0.25 1.875 0.25 4 1 C5.25 3.0625 5.25 3.0625 6 5 C4.02 5.66 2.04 6.32 0 7 C0 4.69 0 2.38 0 0 Z " fill="#BDB8C6" transform="translate(56,72)"/>
<path d="M0 0 C2.0625 0.4375 2.0625 0.4375 4 1 C3.01 1.495 3.01 1.495 2 2 C0.84429296 5.46712111 0.67164707 8.5414956 0.4375 12.1875 C0.35371094 13.45980469 0.26992187 14.73210937 0.18359375 16.04296875 C0.12300781 17.01878906 0.06242187 17.99460937 0 19 C-0.33 19 -0.66 19 -1 19 C-1.02683987 16.02077407 -1.04676037 13.04178705 -1.0625 10.0625 C-1.07087891 9.21236328 -1.07925781 8.36222656 -1.08789062 7.48632812 C-1.09111328 6.67744141 -1.09433594 5.86855469 -1.09765625 5.03515625 C-1.10289307 4.2862915 -1.10812988 3.53742676 -1.11352539 2.76586914 C-1 1 -1 1 0 0 Z " fill="#CC9C3F" transform="translate(93,68)"/>
<path d="M0 0 C0.33 1.65 0.66 3.3 1 5 C-1.31 4.34 -3.62 3.68 -6 3 C-6 4.65 -6 6.3 -6 8 C-6.33 8 -6.66 8 -7 8 C-7 6.35 -7 4.7 -7 3 C-7.66 2.67 -8.32 2.34 -9 2 C-3.375 0 -3.375 0 0 0 Z " fill="#42345D" transform="translate(61,69)"/>
<path d="M0 0 C2.31 0.33 4.62 0.66 7 1 C5.515 2.485 5.515 2.485 4 4 C4.99 4.66 5.98 5.32 7 6 C5.35 6.33 3.7 6.66 2 7 C1.34 4.69 0.68 2.38 0 0 Z " fill="#896845" transform="translate(48,38)"/>
<path d="M0 0 C0 1.65 0 3.3 0 5 C-1.65 4.67 -3.3 4.34 -5 4 C-5.33 2.68 -5.66 1.36 -6 0 C-3.50907189 -1.24546405 -2.58919267 -0.7767578 0 0 Z " fill="#B7B2C1" transform="translate(86,81)"/>
<path d="M0 0 C0.33 0.66 0.66 1.32 1 2 C3.52733235 2.65555119 3.52733235 2.65555119 6 3 C4.25 4.5625 4.25 4.5625 2 6 C-0.25 5.6875 -0.25 5.6875 -2 5 C-1.34 4.67 -0.68 4.34 0 4 C-1.32 4 -2.64 4 -4 4 C-4 3.01 -4 2.02 -4 1 C-2.68 1.33 -1.36 1.66 0 2 C0 1.34 0 0.68 0 0 Z " fill="#524055" transform="translate(70,73)"/>
<path d="M0 0 C2.62187494 1.04874998 3.79371361 1.64931313 5.25 4.125 C5.4975 4.74375 5.745 5.3625 6 6 C3.83125748 5.49396008 2.00032373 5.00016187 0 4 C-0.33 4.66 -0.66 5.32 -1 6 C-1.33 5.01 -1.66 4.02 -2 3 C-1.34 2.01 -0.68 1.02 0 0 Z " fill="#403052" transform="translate(69,44)"/>
<path d="M0 0 C0.66 0.33 1.32 0.66 2 1 C1.67 1.33 1.34 1.66 1 2 C1.99 2.66 2.98 3.32 4 4 C-0.455 5.485 -0.455 5.485 -5 7 C-3.38262276 3.76524552 -2.52370777 2.29427979 0 0 Z " fill="#756C8A" transform="translate(10,94)"/>
<path d="M0 0 C2.0625 1.75 2.0625 1.75 4 4 C3.75 6.25 3.75 6.25 3 8 C2.34 8 1.68 8 1 8 C-1 5 -1 5 -0.625 2.3125 C-0.41875 1.549375 -0.2125 0.78625 0 0 Z " fill="#765B4D" transform="translate(34,30)"/>
<path d="M0 0 C-0.33 1.32 -0.66 2.64 -1 4 C-2.65 4 -4.3 4 -6 4 C-6 2.68 -6 1.36 -6 0 C-3.50907189 -1.24546405 -2.58919267 -0.7767578 0 0 Z " fill="#C2BECB" transform="translate(60,62)"/>
<path d="M0 0 C0.66 0 1.32 0 2 0 C4.29648649 2.5614657 5 3.47967572 5 7 C1.125 6.125 1.125 6.125 0 5 C-0.04063832 3.33382885 -0.042721 1.66611905 0 0 Z " fill="#EEEDF0" transform="translate(33,37)"/>
<path d="M0 0 C0.66 0 1.32 0 2 0 C1.67 1.98 1.34 3.96 1 6 C-0.32 6.33 -1.64 6.66 -3 7 C-2.38722388 4.03824877 -1.74627478 2.61941217 0 0 Z " fill="#EEEDEE" transform="translate(105,37)"/>
<path d="M0 0 C2.97 0 5.94 0 9 0 C8.01 0.33 7.02 0.66 6 1 C6 3.64 6 6.28 6 9 C5.67 9 5.34 9 5 9 C5 6.36 5 3.72 5 1 C2.66924071 1.95865509 2.66924071 1.95865509 1 5 C0.67 3.35 0.34 1.7 0 0 Z " fill="#6A6180" transform="translate(67,13)"/>
<path d="M0 0 C0.66 0 1.32 0 2 0 C2 2.31 2 4.62 2 7 C-0.475 6.01 -0.475 6.01 -3 5 C-1.125 1.125 -1.125 1.125 0 0 Z " fill="#C4C0CC" transform="translate(82,17)"/>
<path d="M0 0 C-0.33 0.99 -0.66 1.98 -1 3 C-7.06266015 5.4021861 -7.06266015 5.4021861 -10.23046875 4.04296875 C-10.81441406 3.69878906 -11.39835937 3.35460938 -12 3 C-10.37604003 2.49663233 -8.75079459 1.99741024 -7.125 1.5 C-6.22007813 1.2215625 -5.31515625 0.943125 -4.3828125 0.65625 C-2 0 -2 0 0 0 Z " fill="#846B61" transform="translate(118,60)"/>
<path d="M0 0 C8.57142857 1 8.57142857 1 12 2 C8.38026598 3.31626692 5.90432869 4 2 4 C2 3.01 2 2.02 2 1 C1.34 0.67 0.68 0.34 0 0 Z " fill="#8B6940" transform="translate(61,33)"/>
<path d="M0 0 C0.33 0.66 0.66 1.32 1 2 C1.99 2.33 2.98 2.66 4 3 C2.329375 3.433125 2.329375 3.433125 0.625 3.875 C-3.00291092 4.69241329 -3.00291092 4.69241329 -5 7 C-5.66 6.34 -6.32 5.68 -7 5 C-6.34 5 -5.68 5 -5 5 C-5 4.34 -5 3.68 -5 3 C-3.35 2.67 -1.7 2.34 0 2 C0 1.34 0 0.68 0 0 Z " fill="#6E5B66" transform="translate(35,74)"/>
<path d="M0 0 C0 2.64 0 5.28 0 8 C-0.66 7.67 -1.32 7.34 -2 7 C-2 5.68 -2 4.36 -2 3 C-2.99 3 -3.98 3 -5 3 C-5 2.34 -5 1.68 -5 1 C-3 0 -3 0 0 0 Z " fill="#AFAABB" transform="translate(85,62)"/>
<path d="M0 0 C7.75 0.75 7.75 0.75 10 3 C8.72125 3.061875 7.4425 3.12375 6.125 3.1875 C5.40570313 3.22230469 4.68640625 3.25710937 3.9453125 3.29296875 C3.30335937 3.19628906 2.66140625 3.09960938 2 3 C1.34 2.01 0.68 1.02 0 0 Z " fill="#453147" transform="translate(71,42)"/>
<path d="M0 0 C0.99 0.66 1.98 1.32 3 2 C2.67 3.32 2.34 4.64 2 6 C0.68 5.67 -0.64 5.34 -2 5 C-1.125 1.125 -1.125 1.125 0 0 Z " fill="#6E5A61" transform="translate(106,30)"/>
<path d="M0 0 C1.485 0.99 1.485 0.99 3 2 C6.12521833 2.16699232 6.12521833 2.16699232 9 2 C9 2.99 9 3.98 9 5 C5.625 4.75 5.625 4.75 2 4 C0.5625 1.9375 0.5625 1.9375 0 0 Z " fill="#4B3A54" transform="translate(21,90)"/>
<path d="M0 0 C0.33 0 0.66 0 1 0 C1 2.31 1 4.62 1 7 C0.34 6.67 -0.32 6.34 -1 6 C-1 5.34 -1 4.68 -1 4 C-1.99 3.67 -2.98 3.34 -4 3 C-4 2.34 -4 1.68 -4 1 C-2.68 1.33 -1.36 1.66 0 2 C0 1.34 0 0.68 0 0 Z " fill="#B5B0BF" transform="translate(73,66)"/>
<path d="M0 0 C0.33 0.66 0.66 1.32 1 2 C-0.4375 4.625 -0.4375 4.625 -2 7 C-2.99 6.67 -3.98 6.34 -5 6 C-3.35 4.02 -1.7 2.04 0 0 Z " fill="#684E49" transform="translate(98,86)"/>
<path d="M0 0 C0.99 0.33 1.98 0.66 3 1 C2.625 2.9375 2.625 2.9375 2 5 C1.01 5.495 1.01 5.495 0 6 C0 5.34 0 4.68 0 4 C-0.66 4 -1.32 4 -2 4 C-2 3.34 -2 2.68 -2 2 C-1.34 2 -0.68 2 0 2 C0 1.34 0 0.68 0 0 Z " fill="#E9B236" transform="translate(92,87)"/>
<path d="M0 0 C0 0.66 0 1.32 0 2 C-0.66 2 -1.32 2 -2 2 C-2.33 2.66 -2.66 3.32 -3 4 C-3 3.34 -3 2.68 -3 2 C-4.98 2.33 -6.96 2.66 -9 3 C-6.01800145 0.01800145 -4.21244839 0 0 0 Z " fill="#644D51" transform="translate(48,73)"/>
<path d="M0 0 C-0.928125 0.4021875 -0.928125 0.4021875 -1.875 0.8125 C-4.2995233 1.95556848 -4.2995233 1.95556848 -6 5 C-6 4.01 -6 3.02 -6 2 C-6.99 1.67 -7.98 1.34 -9 1 C-5.57367167 -0.61798838 -3.61944899 -1.34053666 0 0 Z " fill="#6A5251" transform="translate(100,56)"/>
<path d="M0 0 C1.98 0 3.96 0 6 0 C5.34 1.32 4.68 2.64 4 4 C2.68 3.34 1.36 2.68 0 2 C0 1.34 0 0.68 0 0 Z " fill="#604642" transform="translate(85,38)"/>
</svg>
